<!-- Generated by IcoMoon.io -->
<svg version="1.1" xmlns="http://www.w3.org/2000/svg" width="28" height="32" viewBox="0 0 28 32">
<title>Group-2</title>
<path fill="#fff" d="M26.97 31.337h-26.084v-27.29c0.001-0.892 0.375-1.747 1.039-2.378s1.564-0.986 2.503-0.987h0.076c0.939 0.001 1.839 0.356 2.503 0.987s1.038 1.486 1.039 2.378v2.552h11.772v-2.552c0.001-0.892 0.375-1.747 1.039-2.378s1.564-0.986 2.503-0.987h0.076c0.939 0.001 1.839 0.356 2.503 0.987s1.038 1.486 1.039 2.378v27.284l-0.011 0.005zM23.428 0.005h-0.076c-1.129 0.001-2.211 0.428-3.010 1.185s-1.249 1.785-1.252 2.857v1.869h-10.355v-1.868c0-1.074-0.449-2.103-1.248-2.862s-1.883-1.186-3.014-1.186h-0.076c-1.126 0.007-2.204 0.436-2.998 1.194s-1.241 1.784-1.242 2.854v27.952h27.533v-27.952c0-1.074-0.449-2.103-1.248-2.862s-1.883-1.186-3.013-1.186v0.005z"></path>
<path fill="#fff" d="M2.587 26.824h5.526v2.324h-5.526v-2.324zM1.868 29.831h6.965v-3.696h-6.965v3.696zM19.809 26.824h5.526v2.324h-5.526v-2.324zM19.090 29.831h6.965v-3.696h-6.965v3.696zM5.65 6.636h-2.404v-2.811c0.021-0.289 0.156-0.561 0.379-0.759 0.217-0.191 0.504-0.308 0.818-0.308 0.002 0 0.003 0 0.005 0h-0c0.001 0 0.003 0 0.004 0 0.314 0 0.601 0.117 0.819 0.309l-0.001-0.001c0.223 0.198 0.358 0.469 0.379 0.759v2.811zM6.369 3.825c-0.061-0.44-0.288-0.843-0.639-1.136s-0.802-0.454-1.269-0.454-0.918 0.161-1.269 0.454c-0.351 0.293-0.578 0.696-0.639 1.136v3.494h3.815v-3.494zM24.578 6.636h-2.404v-2.811c0.021-0.289 0.156-0.561 0.379-0.759 0.217-0.191 0.504-0.308 0.818-0.308 0.002 0 0.003 0 0.005 0h-0c0.305 0 0.599 0.11 0.823 0.308s0.359 0.469 0.379 0.759v2.811zM25.297 3.825c-0.061-0.44-0.288-0.843-0.639-1.136s-0.802-0.454-1.269-0.454-0.918 0.161-1.269 0.454c-0.351 0.293-0.578 0.696-0.639 1.136v3.494h3.815v-3.494zM5.65 14.841h-2.404v-2.811c0.021-0.289 0.156-0.561 0.379-0.759 0.217-0.191 0.504-0.308 0.818-0.308 0.002 0 0.003 0 0.005 0h-0c0.001 0 0.003 0 0.004 0 0.314 0 0.601 0.117 0.819 0.309l-0.001-0.001c0.223 0.198 0.358 0.469 0.379 0.759v2.811zM6.369 12.030c-0.061-0.44-0.288-0.843-0.639-1.136s-0.802-0.454-1.269-0.454-0.918 0.161-1.269 0.454c-0.351 0.292-0.578 0.696-0.639 1.136v3.494h3.815v-3.494zM11.961 14.84h-2.409v-2.811c0-0.303 0.127-0.595 0.353-0.809s0.532-0.335 0.852-0.335c0.32 0 0.626 0.121 0.852 0.335s0.353 0.505 0.353 0.809v2.811zM12.68 12.030c0-0.485-0.203-0.95-0.564-1.292s-0.85-0.535-1.36-0.535c-0.51 0-1 0.192-1.36 0.535s-0.563 0.808-0.563 1.292v3.494h3.848v-3.494zM18.272 14.84h-2.409v-2.811c0-0.303 0.127-0.595 0.353-0.809s0.532-0.335 0.852-0.335c0.319 0 0.626 0.121 0.852 0.335s0.353 0.505 0.353 0.809v2.811zM18.992 12.030c0-0.485-0.203-0.95-0.564-1.292s-0.85-0.535-1.36-0.535c-0.51 0-1 0.192-1.36 0.535s-0.563 0.808-0.563 1.292v3.494h3.848v-3.494zM24.578 14.841h-2.404v-2.811c0.021-0.289 0.156-0.561 0.379-0.759 0.217-0.191 0.504-0.308 0.818-0.308 0.002 0 0.003 0 0.005 0h-0c0.305 0 0.599 0.11 0.823 0.308s0.359 0.469 0.379 0.759v2.811zM25.297 12.030c-0.061-0.44-0.288-0.843-0.639-1.136s-0.802-0.454-1.269-0.454-0.918 0.161-1.269 0.454c-0.351 0.292-0.578 0.696-0.639 1.136v3.494h3.815v-3.494zM3.246 19.059c0.021-0.289 0.156-0.561 0.379-0.759 0.217-0.191 0.504-0.308 0.818-0.308 0.002 0 0.003 0 0.005 0h-0c0.001 0 0.003 0 0.004 0 0.314 0 0.601 0.117 0.819 0.309l-0.001-0.001c0.223 0.198 0.358 0.469 0.379 0.759v2.805h-2.404v-2.805zM2.522 22.538h3.815v-3.478c-0.061-0.44-0.288-0.843-0.639-1.136s-0.802-0.454-1.269-0.454-0.918 0.161-1.269 0.454c-0.351 0.293-0.578 0.696-0.639 1.136v3.478zM9.552 19.059c0-0.303 0.127-0.594 0.353-0.809s0.532-0.335 0.852-0.335c0.32 0 0.626 0.12 0.852 0.335s0.353 0.506 0.353 0.809v2.805h-2.409v-2.805zM8.833 22.548h3.848v-3.489c0-0.485-0.203-0.949-0.564-1.292s-0.85-0.535-1.36-0.535c-0.51 0-1 0.192-1.36 0.535s-0.563 0.808-0.563 1.292v3.489zM15.863 19.059c0-0.303 0.127-0.594 0.353-0.809s0.532-0.335 0.852-0.335c0.319 0 0.626 0.12 0.852 0.335s0.353 0.506 0.353 0.809v2.805h-2.409v-2.805zM15.144 22.548h3.848v-3.489c0-0.485-0.203-0.949-0.564-1.292s-0.85-0.535-1.36-0.535c-0.51 0-1 0.192-1.36 0.535s-0.563 0.808-0.563 1.292v3.489zM22.174 19.059c0.021-0.289 0.156-0.561 0.379-0.759 0.217-0.191 0.504-0.308 0.818-0.308 0.002 0 0.003 0 0.005 0h-0c0.305 0 0.599 0.11 0.823 0.308s0.359 0.469 0.379 0.759v2.805h-2.404v-2.805zM21.455 22.548h3.815v-3.489c-0.061-0.44-0.288-0.843-0.639-1.136s-0.802-0.454-1.269-0.454-0.918 0.161-1.269 0.454c-0.351 0.293-0.578 0.696-0.639 1.136v3.489zM10.55 30.654h0.719v-4.074h2.42v4.074h0.719v-4.074h2.42v4.074h0.719v-4.757h-6.998v4.757zM1.595 9.1h24.656v-0.683h-24.656v0.683zM18.376 3.929c0.007-0.229 0.031-0.457 0.071-0.683h-9.047c0.040 0.226 0.064 0.454 0.071 0.683h8.905zM1.595 25.043h24.656v-0.683h-24.656v0.683z"></path>
</svg>
