<!-- Generated by IcoMoon.io -->
<svg version="1.1" xmlns="http://www.w3.org/2000/svg" width="36" height="32" viewBox="0 0 36 32">
<title>Group-6</title>
<path fill="#fff" d="M7.689 1.451c0.426-0.242 0.93-0.398 1.467-0.431l0.010-0c0.139-0.016 0.279 0.014 0.4 0.086 0.038 0.139-0.319 0.816-1.395 1.38-0.424 0.241-0.926 0.395-1.461 0.424l-0.009 0c-0.022 0.003-0.047 0.004-0.073 0.004-0.121 0-0.234-0.034-0.33-0.092l0.003 0.002c-0.038-0.139 0.313-0.809 1.389-1.373zM6.7 3.912c0.694-0.030 1.336-0.223 1.898-0.541l-0.021 0.011c0.559-0.28 1.060-0.677 1.47-1.167 0.582-0.736 0.469-1.28 0.344-1.539-0.122-0.228-0.303-0.411-0.523-0.531l-0.007-0.003c-0.162-0.088-0.355-0.14-0.56-0.14-0.057 0-0.113 0.004-0.168 0.012l0.006-0.001c-0.694 0.034-1.335 0.227-1.899 0.542l0.022-0.011c-0.562 0.282-1.064 0.681-1.477 1.174-0.193 0.187-0.332 0.43-0.391 0.702l-0.002 0.009c-0.059 0.274-0.038 0.561 0.062 0.821 0.122 0.228 0.303 0.411 0.523 0.531l0.007 0.003c0.162 0.088 0.355 0.14 0.56 0.14 0.057 0 0.113-0.004 0.168-0.012l-0.006 0.001h-0.006zM9.090 4.416c2.036-1.078 4.282-1.637 6.557-1.632 2.672-0.009 5.297 0.75 7.595 2.198s4.181 3.529 5.452 6.022l-26.568 13.931c-1.557-3.712-1.702-7.917-0.404-11.739s3.937-6.965 7.368-8.773v-0.007zM1.688 26.261l28.276-14.814-0.213-0.445c-1.905-3.876-5.166-6.808-9.085-8.166s-8.183-1.035-11.88 0.901-6.531 5.329-7.897 9.453c-1.365 4.124-1.153 8.652 0.592 12.612l0.206 0.445v0.013z"></path>
<path fill="#fff" d="M3.096 23.847c0.056 0.002 0.112-0.009 0.163-0.033 0.061-0.022 0.117-0.057 0.164-0.103s0.085-0.102 0.111-0.164c0.025-0.058 0.039-0.126 0.039-0.198s-0.015-0.14-0.041-0.202l0.001 0.003c-0.835-2.529-0.98-5.257-0.418-7.869s1.809-5.003 3.596-6.898c0.056-0.043 0.102-0.099 0.136-0.164 0.036-0.069 0.057-0.152 0.057-0.239 0-0.067-0.012-0.131-0.035-0.189l0.001 0.004c-0.027-0.070-0.066-0.13-0.116-0.179l-0-0c-0.049-0.048-0.108-0.086-0.174-0.108l-0.003-0.001c-0.042-0.015-0.091-0.023-0.141-0.023-0.022 0-0.044 0.002-0.066 0.005l0.002-0c-0.069 0.010-0.134 0.036-0.193 0.076s-0.107 0.093-0.144 0.156c-1.911 2.028-3.242 4.588-3.84 7.384s-0.438 5.714 0.461 8.418c0.033 0.095 0.093 0.177 0.171 0.235s0.171 0.089 0.267 0.090zM34.957 31.27h-33.575c-0.112-0.015-0.208-0.071-0.275-0.152l-0.001-0.001c-0.069-0.082-0.11-0.19-0.11-0.306 0-0.001 0-0.001 0-0.002v0c0-0.114 0.039-0.223 0.11-0.308 0.068-0.082 0.164-0.138 0.273-0.153l0.002-0h33.575c0.112 0.015 0.208 0.071 0.275 0.152l0.001 0.001c0.071 0.085 0.11 0.194 0.11 0.308s-0.039 0.223-0.11 0.308c-0.068 0.082-0.164 0.138-0.273 0.153l-0.002 0zM34.957 29.618h-33.575c-0.283 0.022-0.548 0.158-0.742 0.378s-0.301 0.511-0.301 0.812 0.107 0.591 0.301 0.812c0.193 0.221 0.458 0.356 0.742 0.379h33.575c0.283-0.022 0.548-0.158 0.742-0.379s0.301-0.511 0.301-0.812-0.107-0.591-0.301-0.812-0.458-0.356-0.742-0.378zM31.935 21.823l-0.626 5.267c-0.038 0.287-0.172 0.549-0.378 0.739s-0.469 0.295-0.742 0.295h-3.041c-0.273-0-0.537-0.105-0.742-0.295s-0.34-0.453-0.378-0.739l-0.626-5.267h6.532zM25.315 27.184c0.059 0.463 0.274 0.888 0.605 1.197s0.756 0.48 1.197 0.482h3.041c0.441-0.001 0.867-0.171 1.198-0.48s0.546-0.735 0.604-1.198l0.757-6.090h-8.134l0.757 6.090h-0.025zM32.842 26.912c-0.054-0.010-0.102-0.026-0.147-0.048l0.004 0.002-0.050 0.438c0 0.106-0.044 0.199-0.063 0.299l0.138 0.033c0.079 0.007 0.158 0.007 0.238 0 0.97 0 1.877-1.081 2.096-2.461 0.147-0.842-0.019-1.712-0.463-2.428-0.117-0.175-0.263-0.321-0.432-0.435l-0.006-0.004c-0.161-0.108-0.35-0.187-0.554-0.224l-0.009-0.001c-0.044-0.005-0.095-0.007-0.147-0.007s-0.103 0.003-0.153 0.008l0.006-0.001-0.094 0.75c0.024-0.003 0.053-0.005 0.081-0.005s0.057 0.002 0.085 0.005l-0.003-0h0.125c0.222 0.051 0.417 0.191 0.544 0.391 0.334 0.56 0.455 1.233 0.338 1.884-0.156 1.061-0.888 1.944-1.533 1.831v-0.027zM28.725 14.248c-0.057-0.029-0.125-0.045-0.196-0.045-0.060 0-0.117 0.012-0.169 0.033l0.003-0.001c-0.061 0.025-0.113 0.061-0.157 0.105l-0 0c-0.044 0.045-0.080 0.098-0.105 0.157l-0.001 0.003c-0.745 1.785-0.363 2.607 0 3.317 0.188 0.328 0.299 0.722 0.299 1.141 0 0.001 0 0.002 0 0.004v-0c0 0.001 0 0.002 0 0.003 0 0.419-0.111 0.813-0.305 1.152l0.006-0.011c-0.026 0.061-0.040 0.127-0.041 0.193s0.010 0.133 0.034 0.195c0.023 0.062 0.058 0.118 0.102 0.165 0.085 0.090 0.204 0.147 0.336 0.15h0c0.001 0 0.003 0 0.004 0 0.097 0 0.187-0.031 0.26-0.083l-0.001 0.001c0.078-0.055 0.139-0.131 0.174-0.22l0.001-0.003c0.228-0.44 0.362-0.96 0.362-1.511 0-0.018-0-0.035-0-0.053l0 0.003c-0.008-0.569-0.157-1.102-0.414-1.567l0.009 0.017c-0.294-0.63-0.526-1.134 0.038-2.488 0.027-0.061 0.043-0.133 0.043-0.208 0-0.063-0.011-0.124-0.032-0.18l0.001 0.004c-0.023-0.064-0.057-0.119-0.099-0.167l0 0c-0.042-0.047-0.092-0.085-0.149-0.112l-0.003-0.001v0.007zM26.729 14.248c-0.057-0.029-0.125-0.045-0.196-0.045-0.060 0-0.117 0.012-0.17 0.034l0.003-0.001c-0.061 0.025-0.113 0.060-0.157 0.104l-0 0c-0.044 0.045-0.080 0.098-0.105 0.157l-0.001 0.003c-0.745 1.785-0.363 2.607 0 3.317 0.188 0.328 0.299 0.722 0.299 1.141 0 0.001 0 0.002 0 0.004v-0c0 0.001 0 0.002 0 0.003 0 0.419-0.111 0.813-0.305 1.152l0.006-0.011c-0.026 0.060-0.041 0.13-0.041 0.203 0 0.066 0.012 0.13 0.035 0.188l-0.001-0.004c0.023 0.062 0.058 0.118 0.102 0.165 0.085 0.090 0.204 0.147 0.336 0.15h0c0.004 0 0.008 0 0.012 0 0.096 0 0.185-0.031 0.258-0.083l-0.001 0.001c0.080-0.057 0.14-0.136 0.175-0.227l0.001-0.003c0.231-0.441 0.367-0.963 0.367-1.517 0-0.016-0-0.031-0-0.047l0 0.002c-0.006-0.569-0.155-1.103-0.413-1.567l0.009 0.017c-0.294-0.63-0.526-1.134 0.038-2.488 0.026-0.060 0.040-0.125 0.043-0.191s-0.008-0.132-0.030-0.194c-0.023-0.064-0.057-0.119-0.099-0.167l0 0c-0.042-0.047-0.092-0.085-0.149-0.112l-0.003-0.001-0.012 0.013zM30.108 17.843c0.186 0.329 0.296 0.722 0.296 1.141 0 0.001 0 0.002 0 0.004v-0c0 0.403-0.102 0.798-0.296 1.144-0.027 0.057-0.045 0.124-0.049 0.194l-0 0.001c-0 0.008-0.001 0.017-0.001 0.026 0 0.062 0.011 0.122 0.030 0.177l-0.001-0.004c0.022 0.064 0.057 0.122 0.101 0.171s0.098 0.088 0.157 0.114c0.059 0.026 0.123 0.040 0.187 0.039 0.068-0.001 0.132-0.017 0.189-0.044l-0.003 0.001c0.059-0.028 0.111-0.068 0.155-0.118s0.077-0.109 0.098-0.173c0.23-0.439 0.365-0.959 0.365-1.511 0-0.018-0-0.036-0-0.053l0 0.003c-0.008-0.57-0.158-1.102-0.417-1.566l0.009 0.017c-0.294-0.63-0.526-1.134 0.044-2.488 0.025-0.060 0.040-0.129 0.040-0.202 0-0.066-0.012-0.129-0.034-0.187l0.001 0.004c-0.045-0.123-0.135-0.221-0.248-0.277l-0.003-0.001c-0.057-0.029-0.125-0.045-0.196-0.045-0.060 0-0.117 0.012-0.17 0.033l0.003-0.001c-0.061 0.025-0.113 0.061-0.157 0.105l-0 0c-0.044 0.045-0.080 0.098-0.105 0.157l-0.001 0.003c-0.738 1.785-0.357 2.607 0 3.317l0.006 0.020zM17.8 28.278v0.61h0.695v-0.544l5.006-1.373c0.118-0.037 0.215-0.114 0.277-0.214l0.001-0.002c0.051-0.082 0.082-0.182 0.082-0.288 0-0.024-0.002-0.047-0.004-0.070l0 0.003c-0.015-0.128-0.074-0.24-0.16-0.323l-0-0c-0.083-0.080-0.196-0.131-0.32-0.134h-19.397c-0.118 0.004-0.231 0.052-0.318 0.137-0.085 0.084-0.143 0.196-0.157 0.321l-0 0.002c-0.002 0.019-0.004 0.041-0.004 0.064 0 0.107 0.031 0.208 0.084 0.292l-0.001-0.002c0.063 0.102 0.16 0.177 0.274 0.213l4.959 1.361v0.557h0.694v-0.663c-0.001-0.135-0.044-0.259-0.118-0.36l0.001 0.002c-0.072-0.1-0.174-0.174-0.293-0.211l-0.004-0.001-3.56-0.995h16.268l-3.573 0.975c-0.142 0.042-0.259 0.129-0.339 0.244l-0.001 0.002c-0.077 0.11-0.123 0.246-0.123 0.393 0 0.009 0 0.017 0 0.026l-0-0.001 0.031-0.020zM16.881 24.696l1.183 0.517h1.808l-2.728-1.194c-2.233-0.959-4.731-0.959-6.964 0l-2.847 1.221h1.84l1.251-0.544c2.067-0.885 4.378-0.885 6.445 0h0.013z"></path>
</svg>
